<?xml version="1.0" encoding="iso-8859-1"?>
<!-- Generator: Adobe Illustrator 18.1.1, SVG Export Plug-In . SVG Version: 6.00 Build 0)  -->
<svg version="1.1" id="Capa_1" xmlns="http://www.w3.org/2000/svg" xmlns:xlink="http://www.w3.org/1999/xlink" x="0px" y="0px"
	 viewBox="0 0 174.581 174.581" style="enable-background:new 0 0 174.581 174.581;" xml:space="preserve">
<g>
	<g>
		<path style="fill:#010002;" d="M143.866,95.001c-1.647,0-2.983,1.343-2.983,2.983v36.804c0,18.652-20.401,33.826-45.479,33.826
			s-45.479-15.174-45.479-33.826v-30.837l12.262,12.274c0.585,0.591,1.349,0.871,2.112,0.871s1.528-0.292,2.112-0.871
			c1.164-1.158,1.164-3.055,0-4.219L47.197,92.781l-19.225,19.225c-1.164,1.164-1.164,3.061,0,4.219
			c1.164,1.164,3.055,1.164,4.219,0l11.773-11.773v30.336c0,21.946,23.08,39.793,51.446,39.793s51.446-17.847,51.446-39.793V97.984
			C146.849,96.331,145.519,95.001,143.866,95.001z"/>
		<path style="fill:#010002;" d="M48.354,32.533c0.346,0.131,0.698,0.185,1.044,0.185c1.211,0,2.351-0.746,2.792-1.939
			c1.79-4.797,5.078-9.338,9.511-13.139c1.247-1.086,1.39-2.96,0.322-4.207s-2.96-1.384-4.207-0.328
			c-5.197,4.451-9.076,9.845-11.212,15.579C46.021,30.236,46.809,31.949,48.354,32.533z"/>
		<path style="fill:#010002;" d="M75.193,9.489c0.34,0,0.686-0.06,1.02-0.179c5.233-1.909,10.824-3.031,16.618-3.341
			c1.641-0.09,2.906-1.486,2.822-3.127c-0.09-1.641-1.462-2.995-3.139-2.828c-6.385,0.334-12.56,1.581-18.348,3.688
			c-1.545,0.567-2.345,2.279-1.778,3.837C72.836,8.738,73.976,9.489,75.193,9.489z"/>
		<path style="fill:#010002;" d="M109.759,7.479c5.704,1.366,10.943,3.532,15.562,6.444c0.495,0.316,1.044,0.459,1.587,0.459
			c0.991,0,1.957-0.489,2.524-1.39c0.877-1.384,0.465-3.228-0.931-4.105c-5.173-3.27-11.015-5.686-17.364-7.202
			c-1.575-0.394-3.21,0.609-3.592,2.208C107.164,5.486,108.154,7.091,109.759,7.479z"/>
		<path style="fill:#010002;" d="M142.183,22.139c-0.883-1.384-2.733-1.79-4.117-0.907c-1.39,0.889-1.796,2.739-0.907,4.123
			c2.888,4.523,4.356,9.356,4.356,14.356v0.979c0,1.641,1.337,2.983,2.983,2.983s2.983-1.343,2.983-2.983v-0.979
			C147.476,33.554,145.698,27.641,142.183,22.139z"/>
		<path style="fill:#010002;" d="M144.492,55.613c-1.647,0-2.983,1.337-2.983,2.983v17.919c0,1.641,1.337,2.983,2.983,2.983
			s2.983-1.343,2.983-2.983V58.597C147.476,56.95,146.139,55.613,144.492,55.613z"/>
		<path style="fill:#010002;" d="M47.573,68.305c1.647,0,2.983-1.337,2.983-2.983V47.409c0-1.647-1.337-2.983-2.983-2.983
			c-1.647,0-2.983,1.337-2.983,2.983v17.913C44.589,66.974,45.92,68.305,47.573,68.305z"/>
	</g>
</g>
<g>
</g>
<g>
</g>
<g>
</g>
<g>
</g>
<g>
</g>
<g>
</g>
<g>
</g>
<g>
</g>
<g>
</g>
<g>
</g>
<g>
</g>
<g>
</g>
<g>
</g>
<g>
</g>
<g>
</g>
</svg>
